# Blender 3.6.23
# www.blender.org
o Cube
v -0.250000 -0.375000 0.500000
v -0.250000 -0.500000 0.500000
v -0.250000 -0.375000 -0.500000
v -0.250000 -0.500000 -0.500000
v 0.375000 -0.375000 0.500000
v 0.375000 -0.500000 0.500000
v 0.375000 -0.375000 -0.500000
v 0.375000 -0.500000 -0.500000
v -0.500000 0.500000 0.375000
v -0.500000 0.437500 0.375000
v -0.500000 0.500000 -0.375000
v -0.500000 0.437500 -0.375000
v 0.250000 0.500000 0.375000
v 0.250000 0.437500 0.375000
v 0.250000 0.500000 -0.375000
v 0.250000 0.437500 -0.375000
v 0.312500 1.250000 0.062500
v 0.312500 -0.375000 0.062500
v 0.312500 1.250000 -0.062500
v 0.312500 -0.375000 -0.062500
v 0.437500 1.250000 0.062500
v 0.437500 -0.375000 0.062500
v 0.437500 1.250000 -0.062500
v 0.437500 -0.375000 -0.062500
v 0.375000 0.312500 -0.125000
v 0.375000 0.312500 0.125000
v 0.375000 0.437500 0.125000
v 0.062500 0.312500 -0.125000
v 0.062500 0.437500 -0.125000
v 0.062500 0.312500 0.125000
v 0.062500 0.437500 0.125000
v -0.187500 0.437500 -0.125000
v -0.187500 0.437500 0.125000
v 0.250000 0.437500 0.125000
v 0.250000 0.437500 -0.125000
v 0.375000 0.437500 -0.125000
v -0.375000 1.375000 0.187500
v -0.312500 1.250000 0.187500
v -0.375000 1.375000 -0.187500
v -0.312500 1.250000 -0.187500
v 0.500000 1.375000 0.187500
v 0.500000 1.250000 0.187500
v 0.500000 1.375000 -0.187500
v 0.500000 1.250000 -0.187500
v -0.375000 1.500000 0.187500
v -0.375000 1.500000 -0.187500
v 0.500000 1.500000 0.187500
v 0.500000 1.500000 -0.187500
v -0.437500 1.375000 0.187500
v -0.437500 1.375000 -0.187500
v -0.437500 1.500000 0.187500
v -0.437500 1.500000 -0.187500
v -0.437500 1.937500 0.250000
v -0.437500 1.500000 0.250000
v -0.437500 1.937500 -0.250000
v -0.437500 1.500000 -0.250000
v 0.750000 1.937500 0.250000
v 0.750000 1.500000 0.250000
v 0.750000 1.937500 -0.250000
v 0.750000 1.500000 -0.250000
v 0.875000 1.937500 0.125000
v 0.875000 1.500000 0.125000
v 0.875000 1.937500 -0.125000
v 0.875000 1.500000 -0.125000
v -0.562500 1.937500 0.125000
v -0.562500 1.500000 0.125000
v -0.562500 1.937500 -0.125000
v -0.562500 1.500000 -0.125000
v -0.125000 1.000000 -0.062500
v -0.125000 1.250000 -0.062500
v -0.125000 1.000000 0.062500
v -0.125000 1.250000 0.062500
v -0.250000 1.000000 -0.062500
v -0.250000 1.250000 -0.062500
v -0.250000 1.000000 0.062500
v -0.250000 1.250000 0.062500
v -0.156250 0.875000 -0.031250
v -0.156250 1.000000 -0.031250
v -0.156250 0.875000 0.031250
v -0.156250 1.000000 0.031250
v -0.218750 0.875000 -0.031250
v -0.218750 1.000000 -0.031250
v -0.218750 0.875000 0.031250
v -0.218750 1.000000 0.031250
v -0.125000 1.312500 0.187500
v -0.125000 1.437500 0.187500
v -0.125000 1.312500 0.250000
v -0.125000 1.437500 0.250000
v -0.250000 1.312500 0.187500
v -0.250000 1.437500 0.187500
v -0.250000 1.312500 0.250000
v -0.250000 1.437500 0.250000
v 0.500000 -0.375000 0.375000
v 0.500000 -0.500000 0.375000
v 0.500000 -0.375000 -0.375000
v 0.500000 -0.500000 -0.375000
v -0.375000 -0.375000 0.375000
v -0.375000 -0.500000 0.375000
v -0.375000 -0.375000 -0.375000
v -0.375000 -0.500000 -0.375000
vn -0.0000 1.0000 -0.0000
vn -0.0000 -0.0000 -1.0000
vn -0.0000 -1.0000 -0.0000
vn -0.7071 -0.0000 -0.7071
vn -0.0000 -0.0000 1.0000
vn 1.0000 -0.0000 -0.0000
vn -1.0000 -0.0000 -0.0000
vn -0.4472 -0.8944 -0.0000
vn -0.8944 -0.4472 -0.0000
vn 0.7071 -0.0000 -0.7071
vn 0.7071 -0.0000 0.7071
vn -0.7071 -0.0000 0.7071
vt 0.632812 0.945312
vt 0.632812 0.867188
vt 0.757812 0.867188
vt 0.757812 0.945312
vt 0.742188 0.820312
vt 0.742188 0.835938
vt 0.664062 0.835938
vt 0.664062 0.820312
vt 0.773438 0.945312
vt 0.898438 0.945312
vt 0.882812 0.960938
vt 0.789062 0.960938
vt 0.773438 0.867188
vt 0.898438 0.867188
vt 0.765625 0.820312
vt 0.765625 0.835938
vt 0.960938 0.820312
vt 0.960938 0.835938
vt 0.882812 0.835938
vt 0.882812 0.820312
vt 0.507812 0.984375
vt 0.414062 0.984375
vt 0.414062 0.890625
vt 0.507812 0.890625
vt 0.710938 0.976562
vt 0.710938 0.984375
vt 0.617188 0.984375
vt 0.617188 0.976562
vt 0.523438 0.984375
vt 0.523438 0.976562
vt 0.507812 0.875000
vt 0.414062 0.875000
vt 0.414062 0.781250
vt 0.507812 0.781250
vt 0.804688 0.976562
vt 0.804688 0.984375
vt 0.898438 0.976562
vt 0.898438 0.984375
vt 0.367188 0.781250
vt 0.367188 0.984375
vt 0.351562 0.984375
vt 0.351562 0.781250
vt 0.335938 0.984375
vt 0.335938 0.781250
vt 0.382812 0.781250
vt 0.382812 0.984375
vt 0.398438 0.781250
vt 0.398438 0.984375
vt 0.554688 0.929688
vt 0.554688 0.945312
vt 0.523438 0.945312
vt 0.523438 0.929688
vt 0.585938 0.960938
vt 0.570312 0.960938
vt 0.570312 0.921875
vt 0.585938 0.921875
vt 0.617188 0.921875
vt 0.601562 0.921875
vt 0.617188 0.890625
vt 0.617188 0.960938
vt 0.601562 0.960938
vt 0.523438 0.890625
vt 0.554688 0.890625
vt 0.523438 0.859375
vt 0.554688 0.859375
vt 0.523438 0.960938
vt 0.554688 0.960938
vt 0.570312 0.890625
vt 0.304688 0.953125
vt 0.304688 0.843750
vt 0.320312 0.843750
vt 0.320312 0.953125
vt 0.242188 0.945312
vt 0.226562 0.953125
vt 0.226562 0.843750
vt 0.242188 0.843750
vt 0.242188 0.828125
vt 0.289062 0.828125
vt 0.289062 0.843750
vt 0.289062 0.945312
vt 0.289062 0.960938
vt 0.242188 0.960938
vt 0.210938 0.953125
vt 0.210938 0.843750
vt 0.242188 0.812500
vt 0.289062 0.812500
vt 0.289062 0.968750
vt 0.242188 0.968750
vt 0.289062 0.984375
vt 0.242188 0.984375
vt 0.226562 0.960938
vt 0.210938 0.960938
vt 0.320312 0.960938
vt 0.304688 0.960938
vt 0.195312 0.757812
vt 0.195312 0.906250
vt 0.132812 0.906250
vt 0.132812 0.757812
vt 0.078125 0.757812
vt 0.078125 0.906250
vt 0.132812 0.929688
vt 0.078125 0.929688
vt 0.015625 0.906250
vt 0.015625 0.757812
vt 0.078125 0.734375
vt 0.132812 0.734375
vt 0.078125 0.531250
vt 0.132812 0.531250
vt 0.132812 0.679688
vt 0.078125 0.679688
vt 0.132812 0.960938
vt 0.078125 0.960938
vt 0.062500 0.921875
vt 0.031250 0.921875
vt 0.179688 0.921875
vt 0.148438 0.921875
vt 0.132812 0.984375
vt 0.078125 0.984375
vt 0.078125 0.703125
vt 0.132812 0.703125
vt 0.031250 0.742188
vt 0.062500 0.742188
vt 0.148438 0.742188
vt 0.179688 0.742188
vt 0.148438 0.679688
vt 0.179688 0.679688
vt 0.179688 0.695312
vt 0.148438 0.695312
vt 0.148438 0.632812
vt 0.179688 0.632812
vt 0.179688 0.648438
vt 0.148438 0.648438
vt 0.179688 0.664062
vt 0.148438 0.664062
vt 0.164062 0.726562
vt 0.148438 0.726562
vt 0.148438 0.710938
vt 0.164062 0.710938
vt 0.195312 0.695312
vt 0.210938 0.695312
vt 0.210938 0.703125
vt 0.195312 0.703125
vt 0.195312 0.671875
vt 0.210938 0.671875
vt 0.210938 0.679688
vt 0.195312 0.679688
vt 0.210938 0.687500
vt 0.195312 0.687500
vt 0.203125 0.718750
vt 0.203125 0.726562
vt 0.195312 0.726562
vt 0.195312 0.718750
vt 0.164062 0.945312
vt 0.179688 0.945312
vt 0.179688 0.953125
vt 0.164062 0.953125
vt 0.179688 0.968750
vt 0.164062 0.968750
vt 0.179688 0.976562
vt 0.164062 0.976562
vt 0.156250 0.968750
vt 0.156250 0.953125
vt 0.187500 0.953125
vt 0.187500 0.968750
vt 0.640625 0.820312
vt 0.640625 0.835938
vt 0.546875 0.835938
vt 0.546875 0.820312
vt 0.648438 0.851562
vt 0.742188 0.851562
vt 0.523438 0.835938
vt 0.523438 0.820312
vt 0.859375 0.820312
vt 0.859375 0.835938
vt 0.789062 0.851562
vt 0.882812 0.851562
vt 0.742188 0.960938
vt 0.648438 0.960938
s 0
f 1/1/1 5/2/1 7/3/1 3/4/1
f 4/5/2 3/6/2 7/7/2 8/8/2
f 6/9/3 8/10/3 96/11/3 94/12/3
f 6/9/3 2/13/3 4/14/3 8/10/3
f 3/6/4 4/5/4 100/15/4 99/16/4
f 6/17/5 5/18/5 1/19/5 2/20/5
f 9/21/1 13/22/1 15/23/1 11/24/1
f 12/25/2 11/26/2 15/27/2 16/28/2
f 16/28/6 15/27/6 13/29/6 14/30/6
f 14/31/3 10/32/3 12/33/3 16/34/3
f 10/35/7 9/36/7 11/26/7 12/25/7
f 14/37/5 13/38/5 9/36/5 10/35/5
f 20/39/2 19/40/2 23/41/2 24/42/2
f 24/42/6 23/41/6 21/43/6 22/44/6
f 18/45/7 17/46/7 19/40/7 20/39/7
f 22/47/5 21/48/5 17/46/5 18/45/5
f 25/49/6 36/50/6 27/51/6 26/52/6
f 26/53/5 27/54/5 31/55/5 30/56/5
f 29/57/2 28/58/2 32/59/2
f 28/58/2 29/57/2 36/60/2 25/61/2
f 26/52/3 30/62/3 28/63/3 25/49/3
f 28/63/8 30/62/8 33/64/8 32/65/8
f 34/66/1 27/51/1 36/50/1 35/67/1
f 30/56/5 31/55/5 33/68/5
f 37/69/5 41/70/5 47/71/5 45/72/5
f 40/73/2 39/74/2 43/75/2 44/76/2
f 44/76/6 43/77/6 41/78/6 42/79/6
f 42/79/3 38/80/3 40/73/3 44/76/3
f 38/80/9 37/81/9 39/82/9 40/73/9
f 42/79/5 41/70/5 37/69/5 38/80/5
f 43/75/2 39/74/2 46/83/2 48/84/2
f 41/78/6 43/77/6 48/85/6 47/86/6
f 39/82/3 37/81/3 49/87/3 50/88/3
f 50/88/7 49/87/7 51/89/7 52/90/7
f 46/83/2 39/74/2 50/91/2 52/92/2
f 37/69/5 45/72/5 51/93/5 49/94/5
f 53/95/1 57/96/1 59/97/1 55/98/1
f 56/99/2 55/98/2 59/97/2 60/100/2
f 60/100/10 59/97/10 63/101/10 64/102/10
f 58/103/3 54/104/3 56/99/3 60/100/3
f 55/98/4 56/99/4 68/105/4 67/106/4
f 58/107/5 57/108/5 53/109/5 54/110/5
f 64/102/6 63/101/6 61/111/6 62/112/6
f 58/103/3 60/100/3 64/113/3 62/114/3
f 59/97/1 57/96/1 61/115/1 63/116/1
f 57/117/11 58/118/11 62/112/11 61/111/11
f 66/119/7 65/120/7 67/106/7 68/105/7
f 54/110/12 53/109/12 65/120/12 66/119/12
f 56/99/3 54/104/3 66/121/3 68/122/3
f 53/95/1 55/98/1 67/123/1 65/124/1
f 69/125/6 70/126/6 72/127/6 71/128/6
f 71/129/5 72/130/5 76/131/5 75/132/5
f 75/132/7 76/131/7 74/133/7 73/134/7
f 73/134/2 74/133/2 70/126/2 69/125/2
f 71/135/3 75/136/3 73/137/3 69/138/3
f 77/139/6 78/140/6 80/141/6 79/142/6
f 79/143/5 80/144/5 84/145/5 83/146/5
f 83/146/7 84/145/7 82/147/7 81/148/7
f 81/148/2 82/147/2 78/140/2 77/139/2
f 79/149/3 83/150/3 81/151/3 77/152/3
f 85/153/6 86/154/6 88/155/6 87/156/6
f 87/156/5 88/155/5 92/157/5 91/158/5
f 91/158/7 92/157/7 90/159/7 89/160/7
f 87/156/3 91/158/3 89/161/3 85/162/3
f 92/157/1 88/155/1 86/163/1 90/164/1
f 96/165/6 95/166/6 93/167/6 94/168/6
f 7/3/1 5/2/1 93/169/1 95/170/1
f 5/171/11 6/172/11 94/168/11 93/167/11
f 8/8/10 7/7/10 95/166/10 96/165/10
f 98/173/7 97/174/7 99/16/7 100/15/7
f 2/20/12 1/19/12 97/174/12 98/173/12
f 4/14/3 2/13/3 98/175/3 100/176/3
f 1/1/1 3/4/1 99/177/1 97/178/1
