# Blender 3.6.23
# www.blender.org
o Cube
v 0.562500 -0.500000 -0.562500
v 0.562500 0.125000 -0.562500
v 0.562500 -0.500000 0.437500
v 0.562500 0.125000 0.437500
v -0.562500 -0.500000 -0.562500
v -0.562500 0.125000 -0.562500
v -0.562500 -0.500000 0.437500
v -0.562500 0.125000 0.437500
v 0.562500 -0.500000 2.062500
v 0.562500 0.125000 2.062500
v 0.562500 -0.500000 3.312500
v 0.562500 0.125000 3.312500
v -0.562500 -0.500000 2.062500
v -0.562500 0.125000 2.062500
v -0.562500 -0.500000 3.312500
v -0.562500 0.125000 3.312500
v 0.625000 0.125000 -0.625000
v 0.625000 0.750000 -0.625000
v 0.625000 0.125000 2.250000
v 0.625000 0.750000 0.500000
v -0.625000 0.125000 -0.625000
v -0.625000 0.750000 -0.625000
v -0.625000 0.125000 2.250000
v -0.625000 0.750000 2.250000
v 0.312500 0.750000 -0.125000
v 0.312500 1.125000 -0.125000
v 0.312500 0.750000 0.500000
v 0.312500 1.125000 0.500000
v -0.312500 0.750000 -0.125000
v -0.312500 1.125000 -0.125000
v -0.312500 0.750000 0.500000
v -0.312500 1.125000 0.500000
v 0.125000 1.312500 -0.125000
v 0.125000 1.312500 0.500000
v -0.125000 1.312500 -0.125000
v -0.125000 1.312500 0.500000
v 0.625000 0.750000 2.250000
v 0.625000 1.312500 2.250000
v 0.625000 0.750000 3.375000
v 0.625000 1.312500 3.375000
v -0.625000 0.750000 0.500000
v -0.625000 1.312500 2.250000
v -0.625000 0.750000 3.375000
v -0.625000 1.312500 3.375000
v 0.437500 1.500000 2.250000
v 0.437500 1.500000 3.375000
v -0.437500 1.500000 2.250000
v -0.437500 1.500000 3.375000
v 0.625000 0.125000 3.375000
v -0.625000 0.125000 0.500000
v -0.625000 0.125000 3.375000
v 0.625000 0.125000 0.500000
v -0.500000 0.125000 0.625000
v -0.500000 0.750000 0.625000
v 0.500000 0.125000 0.625000
v 0.500000 0.750000 0.625000
v 0.625000 0.125000 2.000000
v -0.625000 0.750000 2.000000
v -0.625000 0.125000 2.000000
v 0.625000 0.750000 2.000000
v 0.500000 0.125000 1.875000
v -0.500000 0.750000 1.875000
v -0.500000 0.125000 1.875000
v 0.500000 0.750000 1.875000
v 0.250000 0.937500 2.000000
v 0.250000 1.187500 2.000000
v 0.250000 0.937500 2.250000
v 0.250000 1.187500 2.250000
v -0.250000 0.937500 2.000000
v -0.250000 1.187500 2.000000
v -0.250000 0.937500 2.250000
v -0.250000 1.187500 2.250000
v 0.125000 1.312500 2.000000
v 0.125000 1.312500 2.250000
v -0.125000 1.312500 2.000000
v -0.125000 1.312500 2.250000
v 0.125000 0.812500 2.000000
v 0.125000 0.812500 2.250000
v -0.125000 0.812500 2.000000
v -0.125000 0.812500 2.250000
v 0.250000 1.000000 1.937500
v 0.250000 1.125000 1.937500
v 0.250000 1.000000 2.000000
v 0.250000 1.125000 2.000000
v 0.187500 1.000000 1.937500
v 0.187500 1.125000 1.937500
v 0.187500 1.000000 2.000000
v 0.187500 1.125000 2.000000
v 0.125000 1.000000 1.937500
v 0.125000 1.125000 1.937500
v 0.125000 1.000000 2.000000
v 0.125000 1.125000 2.000000
v 0.187500 1.000000 1.875000
v 0.187500 1.125000 1.875000
v 0.125000 1.000000 1.875000
v 0.125000 1.125000 1.875000
v 0.062500 1.312500 1.937500
v -0.062500 1.312500 1.937500
v 0.062500 1.312500 2.000000
v -0.062500 1.312500 2.000000
v 0.062500 1.250000 1.937500
v -0.062500 1.250000 1.937500
v 0.062500 1.250000 2.000000
v -0.062500 1.250000 2.000000
v 0.062500 1.187500 1.937500
v -0.062500 1.187500 1.937500
v 0.062500 1.187500 2.000000
v -0.062500 1.187500 2.000000
v 0.062500 1.250000 1.875000
v -0.062500 1.250000 1.875000
v 0.062500 1.187500 1.875000
v -0.062500 1.187500 1.875000
v -0.250000 1.125001 1.937500
v -0.250000 1.000001 1.937500
v -0.250000 1.125001 2.000000
v -0.250000 1.000001 2.000000
v -0.187500 1.125001 1.937500
v -0.187500 1.000001 1.937500
v -0.187500 1.125001 2.000000
v -0.187500 1.000001 2.000000
v -0.125000 1.125000 1.937500
v -0.125000 1.000001 1.937500
v -0.125000 1.125001 2.000000
v -0.125000 1.000001 2.000000
v -0.187500 1.125000 1.875000
v -0.187500 1.000000 1.875000
v -0.125000 1.125000 1.875000
v -0.125000 1.000000 1.875000
v -0.062500 0.812500 1.937500
v 0.062500 0.812500 1.937500
v -0.062500 0.812500 2.000000
v 0.062500 0.812500 2.000000
v -0.062500 0.875000 1.937500
v 0.062500 0.875000 1.937500
v -0.062500 0.875000 2.000000
v 0.062500 0.875000 2.000000
v -0.062500 0.937500 1.937500
v 0.062500 0.937500 1.937500
v -0.062500 0.937500 2.000000
v 0.062500 0.937500 2.000000
v -0.062500 0.875000 1.875000
v 0.062500 0.875000 1.875000
v -0.062500 0.937500 1.875000
v 0.062500 0.937500 1.875000
v 0.062500 1.000000 0.625000
v 0.062500 1.125000 0.625000
v 0.062500 1.000000 0.875000
v 0.062500 1.125000 0.875000
v -0.062500 1.000000 0.625000
v -0.062500 1.125000 0.625000
v -0.062500 1.000000 0.875000
v -0.062500 1.125000 0.875000
v 0.125000 0.937500 0.500000
v 0.125000 1.187500 0.500000
v 0.125000 0.937500 0.625000
v 0.125000 1.187500 0.625000
v -0.125000 0.937500 0.500000
v -0.125000 1.187500 0.500000
v -0.125000 0.937500 0.625000
v -0.125000 1.187500 0.625000
v 0.062500 1.125000 -0.125000
v 0.062500 1.000000 -0.125000
v 0.062500 1.125000 -0.312500
v 0.062500 1.000000 -0.312500
v -0.062500 1.125000 -0.125000
v -0.062500 1.000000 -0.125000
v -0.062500 1.125000 -0.312500
v -0.062500 1.000000 -0.312500
v 0.250000 0.937500 -0.312500
v 0.250000 1.187500 -0.312500
v 0.250000 0.937500 -0.250000
v 0.250000 1.187500 -0.250000
v -0.250000 0.937500 -0.312500
v -0.250000 1.187500 -0.312500
v -0.250000 0.937500 -0.250000
v -0.250000 1.187500 -0.250000
v 0.125000 1.312500 -0.312500
v 0.125000 1.312500 -0.250000
v -0.125000 1.312500 -0.312500
v -0.125000 1.312500 -0.250000
v 0.125000 0.812500 -0.312500
v 0.125000 0.812500 -0.250000
v -0.125000 0.812500 -0.312500
v -0.125000 0.812500 -0.250000
v 0.187500 0.968750 -0.250000
v 0.187500 0.968750 -0.312500
v 0.187500 1.156250 -0.312500
v 0.187500 1.156250 -0.250000
v -0.187500 1.156250 -0.250000
v -0.187500 0.968750 -0.250000
v -0.187500 0.968750 -0.312500
v -0.187500 1.156250 -0.312500
v 0.093750 1.250000 -0.312500
v 0.093750 1.250000 -0.250000
v -0.093750 1.250000 -0.250000
v -0.093750 1.250000 -0.312500
v 0.093750 0.875000 -0.250000
v 0.093750 0.875000 -0.312500
v -0.093750 0.875000 -0.250000
v -0.093750 0.875000 -0.312500
v 0.062500 1.031250 -0.250000
v 0.062500 1.031250 -0.312500
v 0.062500 1.093750 -0.312500
v 0.062500 1.093750 -0.250000
v 0.187500 1.093750 -0.250000
v 0.187500 1.031250 -0.250000
v 0.187500 1.093750 -0.312500
v 0.187500 1.031250 -0.312500
v -0.062500 1.093750 -0.250000
v -0.062500 1.093750 -0.312500
v -0.062500 1.031250 -0.312500
v -0.062500 1.031250 -0.250000
v -0.187500 1.031250 -0.250000
v -0.187500 1.093750 -0.250000
v -0.187500 1.031250 -0.312500
v -0.187500 1.093750 -0.312500
v -0.031250 1.000000 -0.250000
v -0.031250 1.000000 -0.312500
v 0.031250 1.000000 -0.312500
v 0.031250 1.000000 -0.250000
v 0.031250 0.875000 -0.250000
v -0.031250 0.875000 -0.250000
v 0.031250 0.875000 -0.312500
v -0.031250 0.875000 -0.312500
v 0.031250 1.125000 -0.250000
v 0.031250 1.125000 -0.312500
v -0.031250 1.125000 -0.312500
v -0.031250 1.125000 -0.250000
v -0.031250 1.250000 -0.250000
v 0.031250 1.250000 -0.250000
v -0.031250 1.250000 -0.312500
v 0.031250 1.250000 -0.312500
vn 1.0000 -0.0000 -0.0000
vn -0.0000 -0.0000 1.0000
vn -1.0000 -0.0000 -0.0000
vn -0.0000 -0.0000 -1.0000
vn -0.0000 -1.0000 -0.0000
vn -0.0000 1.0000 -0.0000
vn -0.7071 0.7071 -0.0000
vn 0.7071 0.7071 -0.0000
vn -0.7071 -0.0000 0.7071
vn 0.7071 -0.0000 0.7071
vn 0.7071 -0.0000 -0.7071
vn -0.7071 -0.0000 -0.7071
vn 0.7071 -0.7071 -0.0000
vn -0.7071 -0.7071 -0.0000
vt 0.046875 0.554688
vt 0.007812 0.554688
vt 0.007812 0.617188
vt 0.046875 0.617188
vt 0.007812 0.687500
vt 0.046875 0.687500
vt 0.007812 0.750000
vt 0.046875 0.750000
vt 0.007812 0.820312
vt 0.046875 0.820312
vt 0.117188 0.687500
vt 0.117188 0.750000
vt 0.132812 0.820312
vt 0.171875 0.820312
vt 0.171875 0.742188
vt 0.132812 0.742188
vt 0.171875 0.671875
vt 0.132812 0.671875
vt 0.171875 0.593750
vt 0.132812 0.593750
vt 0.171875 0.523438
vt 0.132812 0.523438
vt 0.062500 0.671875
vt 0.062500 0.593750
vt 0.093750 0.835938
vt 0.093750 0.875000
vt 0.078125 0.875000
vt 0.078125 0.835938
vt 0.414062 0.765625
vt 0.414062 0.828125
vt 0.406250 0.835938
vt 0.406250 0.757812
vt 0.406250 0.875000
vt 0.335938 0.875000
vt 0.335938 0.835938
vt 0.257812 0.875000
vt 0.257812 0.835938
vt 0.335938 0.757812
vt 0.187500 0.953125
vt 0.187500 0.875000
vt 0.257812 0.953125
vt 0.246094 0.816406
vt 0.246094 0.792969
vt 0.285156 0.792969
vt 0.285156 0.816406
vt 0.320312 0.789062
vt 0.296875 0.789062
vt 0.296875 0.750000
vt 0.320312 0.750000
vt 0.285156 0.722656
vt 0.285156 0.746094
vt 0.246094 0.746094
vt 0.246094 0.722656
vt 0.210938 0.750000
vt 0.234375 0.750000
vt 0.234375 0.789062
vt 0.210938 0.789062
vt 0.285156 0.761719
vt 0.246094 0.761719
vt 0.285156 0.777344
vt 0.246094 0.777344
vt 0.078125 0.910156
vt 0.007812 0.910156
vt 0.007812 0.875000
vt 0.664062 0.875000
vt 0.664062 0.910156
vt 0.585938 0.910156
vt 0.585938 0.875000
vt 0.515625 0.910156
vt 0.515625 0.875000
vt 0.437500 0.910156
vt 0.437500 0.875000
vt 0.179688 0.945312
vt 0.179688 0.882812
vt 0.519531 0.921875
vt 0.519531 0.992188
vt 0.503906 0.992188
vt 0.503906 0.921875
vt 0.449219 0.992188
vt 0.449219 0.921875
vt 0.433594 0.992188
vt 0.433594 0.921875
vt 0.652344 0.921875
vt 0.597656 0.921875
vt 0.664062 0.835938
vt 0.585938 0.835938
vt 0.007812 0.835938
vt 0.515625 0.835938
vt 0.515625 0.757812
vt 0.585938 0.757812
vt 0.414062 0.835938
vt 0.414062 0.875000
vt 0.187500 0.835938
vt 0.492188 0.835938
vt 0.492188 0.875000
vt 0.101562 0.945312
vt 0.101562 0.882812
vt 0.492188 0.765625
vt 0.492188 0.828125
vt 0.179688 0.875000
vt 0.179688 0.835938
vt 0.500000 0.835938
vt 0.500000 0.757812
vt 0.078125 0.953125
vt 0.093750 0.953125
vt 0.500000 0.875000
vt 0.101562 0.835938
vt 0.101562 0.875000
vt 0.370424 0.906250
vt 0.354799 0.906250
vt 0.354799 0.890625
vt 0.370424 0.890625
vt 0.301451 0.890625
vt 0.317076 0.890625
vt 0.317076 0.906250
vt 0.301451 0.906250
vt 0.320312 0.929688
vt 0.320312 0.914062
vt 0.351562 0.914062
vt 0.351562 0.929688
vt 0.343750 0.937500
vt 0.328125 0.937500
vt 0.328125 0.890625
vt 0.328125 0.906250
vt 0.343750 0.890625
vt 0.343750 0.906250
vt 0.274778 0.890625
vt 0.290403 0.890625
vt 0.290403 0.906250
vt 0.274778 0.906250
vt 0.381472 0.890625
vt 0.381472 0.906250
vt 0.546875 0.980469
vt 0.554688 0.980469
vt 0.554688 0.984375
vt 0.546875 0.984375
vt 0.546875 0.964844
vt 0.554688 0.964844
vt 0.554688 0.968750
vt 0.546875 0.968750
vt 0.546875 0.976562
vt 0.554688 0.976562
vt 0.539062 0.960938
vt 0.542969 0.960938
vt 0.542969 0.964844
vt 0.539062 0.964844
vt 0.558594 0.960938
vt 0.562500 0.960938
vt 0.562500 0.964844
vt 0.558594 0.964844
vt 0.546875 0.960938
vt 0.554688 0.960938
vt 0.554688 0.972656
vt 0.546875 0.972656
vt 0.542969 0.968750
vt 0.558594 0.968750
vt 0.578125 0.980469
vt 0.585938 0.980469
vt 0.585938 0.984375
vt 0.578125 0.984375
vt 0.578125 0.964844
vt 0.585938 0.964844
vt 0.585938 0.968750
vt 0.578125 0.968750
vt 0.578125 0.976562
vt 0.585938 0.976562
vt 0.570312 0.960938
vt 0.574219 0.960938
vt 0.574219 0.964844
vt 0.570312 0.964844
vt 0.589844 0.960938
vt 0.593750 0.960938
vt 0.593750 0.964844
vt 0.589844 0.964844
vt 0.578125 0.960938
vt 0.585938 0.960938
vt 0.585938 0.972656
vt 0.578125 0.972656
vt 0.574219 0.968750
vt 0.589844 0.968750
vt 0.609375 0.980469
vt 0.617188 0.980469
vt 0.617188 0.984375
vt 0.609375 0.984375
vt 0.609375 0.964844
vt 0.617188 0.964844
vt 0.617188 0.968750
vt 0.609375 0.968750
vt 0.609375 0.976562
vt 0.617188 0.976562
vt 0.601562 0.960938
vt 0.605469 0.960938
vt 0.605469 0.964844
vt 0.601562 0.964844
vt 0.621094 0.960938
vt 0.625000 0.960938
vt 0.625000 0.964844
vt 0.621094 0.964844
vt 0.609375 0.960938
vt 0.617188 0.960938
vt 0.617188 0.972656
vt 0.609375 0.972656
vt 0.605469 0.968750
vt 0.621094 0.968750
vt 0.640625 0.980469
vt 0.648438 0.980469
vt 0.648438 0.984375
vt 0.640625 0.984375
vt 0.640625 0.964844
vt 0.648438 0.964844
vt 0.648438 0.968750
vt 0.640625 0.968750
vt 0.640625 0.976562
vt 0.648438 0.976562
vt 0.632812 0.960938
vt 0.636719 0.960938
vt 0.636719 0.964844
vt 0.632812 0.964844
vt 0.652344 0.960938
vt 0.656250 0.960938
vt 0.656250 0.964844
vt 0.652344 0.964844
vt 0.640625 0.960938
vt 0.648438 0.960938
vt 0.648438 0.972656
vt 0.640625 0.972656
vt 0.636719 0.968750
vt 0.652344 0.968750
vt 0.492188 0.742188
vt 0.484375 0.742188
vt 0.484375 0.726562
vt 0.492188 0.726562
vt 0.468750 0.718750
vt 0.476562 0.718750
vt 0.476562 0.726562
vt 0.468750 0.726562
vt 0.476562 0.742188
vt 0.468750 0.742188
vt 0.304688 0.730469
vt 0.296875 0.730469
vt 0.296875 0.722656
vt 0.304688 0.722656
vt 0.500000 0.726562
vt 0.500000 0.742188
vt 0.445312 0.742188
vt 0.429688 0.742188
vt 0.429688 0.734375
vt 0.445312 0.734375
vt 0.398438 0.718750
vt 0.414062 0.718750
vt 0.414062 0.734375
vt 0.398438 0.734375
vt 0.414062 0.742188
vt 0.398438 0.742188
vt 0.304688 0.742188
vt 0.296875 0.742188
vt 0.460938 0.734375
vt 0.460938 0.742188
vt 0.312500 0.730469
vt 0.320312 0.730469
vt 0.320312 0.742188
vt 0.312500 0.742188
vt 0.328125 0.730469
vt 0.328125 0.742188
vt 0.482364 0.710938
vt 0.466739 0.710938
vt 0.466739 0.707031
vt 0.482364 0.707031
vt 0.426729 0.699219
vt 0.426729 0.695312
vt 0.438448 0.695312
vt 0.438448 0.699219
vt 0.413392 0.707031
vt 0.429017 0.707031
vt 0.429017 0.710938
vt 0.413392 0.710938
vt 0.406724 0.699219
vt 0.406724 0.695312
vt 0.418443 0.695312
vt 0.418443 0.699219
vt 0.402344 0.710938
vt 0.402344 0.707031
vt 0.440066 0.707031
vt 0.440066 0.710938
vt 0.455691 0.707031
vt 0.455691 0.710938
vt 0.458453 0.695312
vt 0.458453 0.699219
vt 0.446734 0.699219
vt 0.446734 0.695312
vt 0.386719 0.707031
vt 0.386719 0.710938
vt 0.398438 0.699219
vt 0.398438 0.695312
vt 0.493413 0.707031
vt 0.493413 0.710938
vt 0.386719 0.699219
vt 0.386719 0.695312
vt 0.466739 0.695312
vt 0.466739 0.699219
vt 0.371094 0.687500
vt 0.369141 0.691406
vt 0.357422 0.691406
vt 0.355469 0.687500
vt 0.378906 0.710938
vt 0.375000 0.708984
vt 0.375000 0.697266
vt 0.378906 0.695312
vt 0.339844 0.710938
vt 0.335938 0.708984
vt 0.335938 0.697266
vt 0.339844 0.695312
vt 0.308594 0.695312
vt 0.312500 0.697266
vt 0.312500 0.708984
vt 0.308594 0.710938
vt 0.316406 0.718750
vt 0.318359 0.714844
vt 0.330078 0.714844
vt 0.332031 0.718750
vt 0.351562 0.697266
vt 0.347656 0.695312
vt 0.332031 0.687500
vt 0.330078 0.691406
vt 0.318359 0.691406
vt 0.316406 0.687500
vt 0.355469 0.718750
vt 0.357422 0.714844
vt 0.369141 0.714844
vt 0.371094 0.718750
vt 0.347656 0.710938
vt 0.351562 0.708984
vt 0.367188 0.738281
vt 0.367188 0.734375
vt 0.375000 0.734375
vt 0.375000 0.738281
vt 0.367188 0.730469
vt 0.367188 0.726562
vt 0.375000 0.726562
vt 0.375000 0.730469
vt 0.343750 0.730469
vt 0.343750 0.734375
vt 0.335938 0.734375
vt 0.335938 0.730469
vt 0.343750 0.738281
vt 0.343750 0.742188
vt 0.335938 0.742188
vt 0.335938 0.738281
vt 0.343750 0.726562
vt 0.335938 0.726562
vt 0.367188 0.742188
vt 0.375000 0.742188
vt 0.390625 0.730469
vt 0.390625 0.734375
vt 0.382812 0.734375
vt 0.382812 0.730469
vt 0.390625 0.738281
vt 0.390625 0.742188
vt 0.382812 0.742188
vt 0.382812 0.738281
vt 0.390625 0.726562
vt 0.382812 0.726562
vt 0.359375 0.730469
vt 0.359375 0.734375
vt 0.351562 0.734375
vt 0.351562 0.730469
vt 0.359375 0.738281
vt 0.359375 0.742188
vt 0.351562 0.742188
vt 0.351562 0.738281
vt 0.359375 0.726562
vt 0.351562 0.726562
s 0
f 1/1/1 2/2/1 4/3/1 3/4/1
f 3/4/2 4/3/2 8/5/2 7/6/2
f 7/6/3 8/5/3 6/7/3 5/8/3
f 5/8/4 6/7/4 2/9/4 1/10/4
f 3/11/5 7/6/5 5/8/5 1/12/5
f 9/13/1 10/14/1 12/15/1 11/16/1
f 11/16/2 12/15/2 16/17/2 15/18/2
f 15/18/3 16/17/3 14/19/3 13/20/3
f 13/20/4 14/19/4 10/21/4 9/22/4
f 11/23/5 15/18/5 13/20/5 9/24/5
f 57/25/1 60/26/1 37/27/1 19/28/1
f 55/29/5 53/30/5 50/31/5 52/32/5
f 50/31/3 41/33/3 22/34/3 21/35/3
f 21/35/4 22/34/4 18/36/4 17/37/4
f 52/32/5 50/31/5 21/35/5 17/38/5
f 41/39/6 20/40/6 18/36/6 22/41/6
f 25/42/1 26/43/1 28/44/1 27/45/1
f 27/46/2 28/47/2 32/48/2 31/49/2
f 31/50/3 32/51/3 30/52/3 29/53/3
f 29/54/4 30/55/4 26/56/4 25/57/4
f 30/52/7 32/51/7 36/58/7 35/59/7
f 36/58/6 34/60/6 33/61/6 35/59/6
f 28/44/8 26/43/8 33/61/8 34/60/8
f 26/56/4 30/55/4 35/59/4 33/61/4
f 32/48/2 28/47/2 34/60/2 36/58/2
f 37/27/1 38/62/1 40/63/1 39/64/1
f 39/65/2 40/66/2 44/67/2 43/68/2
f 43/68/3 44/67/3 42/69/3 24/70/3
f 24/70/4 42/69/4 38/71/4 37/72/4
f 54/73/6 56/74/6 20/40/6 41/39/6
f 42/75/7 44/76/7 48/77/7 47/78/7
f 48/77/6 46/79/6 45/80/6 47/78/6
f 40/81/8 38/82/8 45/80/8 46/79/8
f 38/71/4 42/69/4 47/78/4 45/80/4
f 44/67/2 40/66/2 46/83/2 48/84/2
f 49/85/2 39/65/2 43/68/2 51/86/2
f 19/28/1 37/27/1 39/64/1 49/87/1
f 24/70/3 23/88/3 51/86/3 43/68/3
f 23/88/5 19/89/5 49/90/5 51/86/5
f 53/91/9 54/92/9 41/33/9 50/31/9
f 17/37/1 18/36/1 20/40/1 52/93/1
f 63/94/3 62/95/3 54/92/3 53/91/3
f 62/96/6 64/97/6 56/74/6 54/73/6
f 61/98/5 63/99/5 53/30/5 55/29/5
f 52/93/10 20/40/10 56/100/10 55/101/10
f 19/89/5 23/88/5 59/102/5 57/103/5
f 24/104/6 37/27/6 60/26/6 58/105/6
f 23/88/3 24/70/3 58/106/3 59/102/3
f 61/107/11 64/108/11 60/26/11 57/25/11
f 55/101/1 56/100/1 64/108/1 61/107/1
f 57/103/5 59/102/5 63/99/5 61/98/5
f 58/105/6 60/26/6 64/97/6 62/96/6
f 59/102/12 58/106/12 62/95/12 63/94/12
f 65/109/1 66/110/1 68/111/1 67/112/1
f 71/113/3 72/114/3 70/115/3 69/116/3
f 69/117/4 70/118/4 66/119/4 65/120/4
f 69/117/4 65/120/4 77/121/4 79/122/4
f 70/115/7 72/114/7 76/123/7 75/124/7
f 76/123/6 74/125/6 73/126/6 75/124/6
f 68/111/8 66/110/8 73/126/8 74/125/8
f 66/119/4 70/118/4 75/124/4 73/126/4
f 78/127/5 80/128/5 79/129/5 77/130/5
f 65/109/13 67/112/13 78/131/13 77/132/13
f 71/113/14 69/116/14 79/129/14 80/128/14
f 81/133/1 82/134/1 84/135/1 83/136/1
f 89/137/3 90/138/3 96/139/3 95/140/3
f 85/141/4 86/142/4 82/134/4 81/133/4
f 83/143/5 87/144/5 85/145/5 81/146/5
f 88/147/6 84/148/6 82/149/6 86/150/6
f 91/151/3 92/152/3 90/138/3 89/137/3
f 85/145/5 87/144/5 91/151/5 89/137/5
f 88/147/6 86/150/6 90/138/6 92/152/6
f 94/153/4 93/154/4 95/140/4 96/139/4
f 86/142/1 85/141/1 93/154/1 94/153/1
f 85/145/5 89/137/5 95/140/5 93/155/5
f 90/138/6 86/150/6 94/156/6 96/139/6
f 97/157/6 98/158/6 100/159/6 99/160/6
f 105/161/5 106/162/5 112/163/5 111/164/5
f 101/165/4 102/166/4 98/158/4 97/157/4
f 99/167/1 103/168/1 101/169/1 97/170/1
f 104/171/3 100/172/3 98/173/3 102/174/3
f 107/175/5 108/176/5 106/162/5 105/161/5
f 101/169/1 103/168/1 107/175/1 105/161/1
f 104/171/3 102/174/3 106/162/3 108/176/3
f 110/177/4 109/178/4 111/164/4 112/163/4
f 102/166/6 101/165/6 109/178/6 110/177/6
f 101/169/1 105/161/1 111/164/1 109/179/1
f 106/162/3 102/174/3 110/180/3 112/163/3
f 113/181/3 114/182/3 116/183/3 115/184/3
f 121/185/1 122/186/1 128/187/1 127/188/1
f 117/189/4 118/190/4 114/182/4 113/181/4
f 115/191/6 119/192/6 117/193/6 113/194/6
f 120/195/5 116/196/5 114/197/5 118/198/5
f 123/199/1 124/200/1 122/186/1 121/185/1
f 117/193/6 119/192/6 123/199/6 121/185/6
f 120/195/5 118/198/5 122/186/5 124/200/5
f 126/201/4 125/202/4 127/188/4 128/187/4
f 118/190/3 117/189/3 125/202/3 126/201/3
f 117/193/6 121/185/6 127/188/6 125/203/6
f 122/186/5 118/198/5 126/204/5 128/187/5
f 129/205/5 130/206/5 132/207/5 131/208/5
f 137/209/6 138/210/6 144/211/6 143/212/6
f 133/213/4 134/214/4 130/206/4 129/205/4
f 131/215/3 135/216/3 133/217/3 129/218/3
f 136/219/1 132/220/1 130/221/1 134/222/1
f 139/223/6 140/224/6 138/210/6 137/209/6
f 133/217/3 135/216/3 139/223/3 137/209/3
f 136/219/1 134/222/1 138/210/1 140/224/1
f 142/225/4 141/226/4 143/212/4 144/211/4
f 134/214/5 133/213/5 141/226/5 142/225/5
f 133/217/3 137/209/3 143/212/3 141/227/3
f 138/210/1 134/222/1 142/228/1 144/211/1
f 145/229/1 146/230/1 148/231/1 147/232/1
f 147/233/2 148/234/2 152/235/2 151/236/2
f 151/236/3 152/235/3 150/237/3 149/238/3
f 163/239/4 164/240/4 168/241/4 167/242/4
f 147/232/5 151/243/5 149/244/5 145/229/5
f 152/235/6 148/231/6 146/230/6 150/237/6
f 153/245/1 154/246/1 156/247/1 155/248/1
f 155/249/2 156/250/2 160/251/2 159/252/2
f 159/252/3 160/251/3 158/253/3 157/254/3
f 161/255/1 162/256/1 164/240/1 163/239/1
f 155/248/5 159/257/5 157/258/5 153/245/5
f 160/251/6 156/247/6 154/246/6 158/253/6
f 167/259/3 168/260/3 166/261/3 165/262/3
f 163/239/6 167/259/6 165/262/6 161/255/6
f 168/260/5 164/263/5 162/264/5 166/261/5
f 169/265/1 170/266/1 172/267/1 171/268/1
f 195/269/5 196/270/5 193/271/5 194/272/5
f 175/273/3 176/274/3 174/275/3 173/276/3
f 190/277/1 191/278/1 192/279/1 189/280/1
f 175/273/14 173/276/14 183/281/14 184/282/14
f 174/275/7 176/274/7 180/283/7 179/284/7
f 180/283/6 178/285/6 177/286/6 179/284/6
f 172/267/8 170/266/8 177/286/8 178/285/8
f 186/287/3 185/288/3 188/289/3 187/290/3
f 192/279/13 196/270/13 195/269/13 189/280/13
f 182/291/5 184/282/5 183/281/5 181/292/5
f 190/277/8 199/293/8 200/294/8 191/278/8
f 188/289/14 194/272/14 193/271/14 187/290/14
f 169/265/13 171/268/13 182/295/13 181/296/13
f 197/297/6 198/298/6 200/294/6 199/293/6
f 186/287/7 198/299/7 197/300/7 185/288/7
f 175/301/2 190/302/2 189/303/2 176/304/2
f 182/305/2 197/306/2 199/307/2 184/308/2
f 177/309/4 193/310/4 196/311/4 179/312/4
f 183/313/4 200/314/4 198/315/4 181/316/4
f 169/317/4 186/318/4 187/319/4 170/320/4
f 176/304/2 189/303/2 195/321/2 180/322/2
f 174/323/4 192/324/4 191/325/4 173/326/4
f 173/326/4 191/325/4 200/314/4 183/313/4
f 179/312/4 196/311/4 192/324/4 174/323/4
f 184/308/2 199/307/2 190/302/2 175/301/2
f 172/327/2 188/328/2 185/329/2 171/330/2
f 170/320/4 187/319/4 193/310/4 177/309/4
f 181/316/4 198/315/4 186/318/4 169/317/4
f 178/331/2 194/332/2 188/328/2 172/327/2
f 171/330/2 185/329/2 197/306/2 182/305/2
f 180/322/2 195/321/2 194/332/2 178/331/2
f 210/333/4 211/334/4 215/335/4 216/336/4
f 212/337/2 209/338/2 214/339/2 213/340/2
f 202/341/4 203/342/4 207/343/4 208/344/4
f 204/345/2 201/346/2 206/347/2 205/348/2
f 201/349/5 202/341/5 208/344/5 206/350/5
f 203/342/6 204/345/6 205/348/6 207/343/6
f 209/351/6 210/333/6 216/336/6 214/352/6
f 211/334/5 212/337/5 213/340/5 215/335/5
f 218/353/4 219/354/4 223/355/4 224/356/4
f 220/357/2 217/358/2 222/359/2 221/360/2
f 217/361/3 218/353/3 224/356/3 222/362/3
f 219/354/1 220/357/1 221/360/1 223/355/1
f 226/363/4 227/364/4 231/365/4 232/366/4
f 228/367/2 225/368/2 230/369/2 229/370/2
f 225/371/1 226/363/1 232/366/1 230/372/1
f 227/364/3 228/367/3 229/370/3 231/365/3
